<svg width="640" height="359" viewBox="0 0 640 359" fill="none" xmlns="http://www.w3.org/2000/svg" preserveAspectRatio="xMidYMid meet">
  <path d="M297.0 4.0 L354.0 5.0 L376.0 8.0 L409.0 16.0 L438.0 26.0 L468.0 40.0 L499.0 59.0 L504.0 63.0 L504.0 65.0 L471.0 91.0 L452.0 78.0 L409.0 59.0 L381.0 51.0 L346.0 46.0 L345.0 84.0 L295.0 84.0 L295.0 46.0 L290.0 46.0 L240.0 56.0 L191.0 76.0 L164.0 92.0 L148.0 104.0 L148.0 106.0 L179.0 137.0 L144.0 172.0 L142.0 172.0 L111.0 141.0 L82.0 182.0 L66.0 214.0 L54.0 249.0 L46.0 292.0 L45.0 329.0 L4.0 329.0 L4.0 299.0 L7.0 272.0 L13.0 242.0 L23.0 210.0 L34.0 184.0 L49.0 156.0 L62.0 136.0 L80.0 113.0 L88.0 106.0 L88.0 104.0 L111.0 82.0 L135.0 63.0 L161.0 46.0 L188.0 32.0 L234.0 15.0 L265.0 8.0 Z" fill="#050505"/>
  <path d="M540.0 81.0 L548.0 86.0 L548.0 91.0 L543.0 95.0 L411.0 260.0 L406.0 264.0 L394.0 281.0 L389.0 285.0 L349.0 337.0 L339.0 347.0 L322.0 355.0 L304.0 355.0 L287.0 347.0 L277.0 335.0 L273.0 324.0 L274.0 302.0 L283.0 286.0 L458.0 145.0 L537.0 85.0 Z" fill="#050505"/>
  <path d="M563.0 117.0 L574.0 130.0 L592.0 157.0 L609.0 190.0 L619.0 215.0 L628.0 246.0 L634.0 279.0 L636.0 329.0 L595.0 329.0 L594.0 289.0 L590.0 264.0 L583.0 237.0 L572.0 208.0 L561.0 186.0 L548.0 165.0 L535.0 149.0 L541.0 140.0 Z" fill="#050505"/>
</svg>
